<?xml version="1.0" encoding="UTF-8"?><svg id="Layer_1" xmlns="http://www.w3.org/2000/svg" viewBox="0 0 512 512"><rect y="0" width="512" height="512" rx="16" ry="16" fill="#fff"/><g><g><path d="M336.09,213.36c-2.97-4.04-5.87-7.58-8.33-11.4-7.36-11.4-10.9-23.97-10.95-37.54-.02-6.13,.05-12.27-.3-18.38-.4-6.97-1.61-13.85-4.21-20.39-3.49-8.75-8.96-15.74-17.4-20.4-6.68-3.69-13.49-6.73-21.08-8.02-6.68-1.14-11.22-6.02-11.99-12.24-.78-6.2,2.42-12.27,8.17-14.68,2.26-.95,4.9-1.53,7.33-1.43,30.88,1.29,52.75,15.82,64.47,43.38,5.15,12.12,6.95,24.94,7.36,38,.14,4.44,.04,8.89,0,13.34-.1,11.76,4.44,21.45,12.94,29.45,3.32,3.12,6.62,6.28,9.77,9.57,5.64,5.88,5.57,15.4-.12,21.24-3.18,3.26-6.47,6.42-9.78,9.56-8.46,8.03-12.99,17.74-12.8,29.5,.16,10.1,.09,20.19-1.58,30.2-1.41,8.46-3.59,16.67-7.32,24.42-10.01,20.75-26.06,33.78-48.82,38.29-5.2,1.03-10.4,1.9-15.74,1.6-7.75-.42-13.58-6-13.97-13.37-.4-7.51,4.54-13.64,12.25-14.94,9.58-1.61,18.14-5.64,25.86-11.3,8.01-5.88,12.21-14.36,14.55-23.82,2.18-8.82,2.69-17.8,2.46-26.84-.18-6.99,.11-13.92,1.67-20.78,2.58-11.37,7.82-21.38,15.27-30.28,.76-.91,1.52-1.82,2.28-2.73Z" fill="#231bcc"/><path d="M175.9,213.48c5.14,5.65,9.43,11.85,12.69,18.75,4.39,9.28,6.4,19.07,6.59,29.31,.15,8.04,.23,16.11,.95,24.11,.43,4.73,1.7,9.47,3.19,14.01,3.94,11.96,12.51,19.65,23.76,24.69,4.84,2.16,9.78,3.93,15.05,4.82,7.65,1.29,12.52,7.48,12.08,15.06-.43,7.33-6.31,13.27-14.1,13.14-28.09-.45-49.79-11.98-63.19-37.38-5.35-10.14-8.19-21.05-9.2-32.38-.69-7.76-.98-15.6-.85-23.39,.22-13.33-4.84-23.98-14.85-32.58-3.08-2.65-5.93-5.62-8.6-8.69-4.86-5.59-4.57-14.74,.56-20.16,3.05-3.22,6.24-6.32,9.5-9.33,8.77-8.1,13.51-17.94,13.33-29.99-.15-10.1-.05-20.18,1.57-30.2,2.59-16.03,8.47-30.5,19.49-42.65,6.75-7.43,14.76-13.06,24.21-16.46,8.97-3.23,18.18-5.55,27.82-5.29,8.5,.23,14.6,6.66,14.34,14.86-.2,6.34-4.48,11.64-10.81,13.25-2.56,.65-5.19,1-7.73,1.72-6.77,1.93-12.95,5.19-18.69,9.17-7.75,5.37-12.16,13.17-14.75,22.04-2.8,9.55-3.38,19.38-3.12,29.28,.18,6.75-.05,13.46-1.49,20.09-2.56,11.75-7.91,22.11-15.67,31.26-.62,.73-1.23,1.47-1.84,2.21-.07,.08-.07,.22-.22,.75Z" fill="#231bcc"/></g><rect x="211.34" y="396.15" width="87.52" height="20.93" rx="1.95" ry="1.95" fill="#231bcc"/><path d="M213.43,367.05h83.71c.95,0,1.72,.77,1.72,1.72v17.06c0,.95-.77,1.72-1.72,1.72h-84.09c-.95,0-1.72-.77-1.72-1.72v-16.68c0-1.16,.94-2.09,2.09-2.09Z" fill="#231bcc"/><path d="M228.2,425.69h53.8l-.06,.08c-16.61,23.25-37.14,23.21-53.74-.08h0Z" fill="#231bcc"/></g></svg>