<?xml version="1.0" encoding="utf-8"?>
<!-- Generator: Adobe Illustrator 26.4.0, SVG Export Plug-In . SVG Version: 6.00 Build 0)  -->
<svg version="1.1" xmlns="http://www.w3.org/2000/svg" xmlns:xlink="http://www.w3.org/1999/xlink" x="0px" y="0px"
	 viewBox="0 0 147 230" style="enable-background:new 0 0 147 230;" xml:space="preserve">
<style type="text/css">
	.st0{fill:#FFFFFF;}
	.st1{fill:#231BCC;}
	.st2{fill:#3819CE;}
	.st3{fill:#E4624D;}
	.st4{fill:#16A1C1;}
	.st5{fill:url(#SVGID_1_);}
	.st6{fill:url(#SVGID_00000061439123044056038420000006251046076315804306_);}
	.st7{fill:url(#SVGID_00000178186896513659500290000011131085909824260994_);}
	.st8{fill:url(#SVGID_00000160177614068617366640000017637176067860855197_);}
	.st9{fill:url(#SVGID_00000112631740366394588710000007915583159420685980_);}
	.st10{fill:#E2A050;}
	.st11{fill:#17C1DD;}
	.st12{fill:#510E8C;}
	.st13{opacity:0.8;fill:#E4624D;}
	.st14{opacity:0.6;fill:#E4624D;}
	.st15{opacity:0.4;fill:#E4624D;}
	.st16{opacity:0.2;fill:#E4624D;}
	.st17{fill:#E9E9FF;stroke:#FFFFFF;stroke-width:4;stroke-miterlimit:10;}
	.st18{fill:#C8C6F2;stroke:#FFFFFF;stroke-width:4;stroke-miterlimit:10;}
	.st19{fill:#918DE5;stroke:#FFFFFF;stroke-width:4;stroke-miterlimit:10;}
	.st20{fill:#5A54D9;stroke:#FFFFFF;stroke-width:4;stroke-miterlimit:10;}
	.st21{fill:#231BCC;stroke:#FFFFFF;stroke-width:4;stroke-miterlimit:10;}
	.st22{fill:#FAE0DB;stroke:#FFFFFF;stroke-width:4;stroke-miterlimit:10;}
	.st23{fill:#F4C0B8;stroke:#FFFFFF;stroke-width:4;stroke-miterlimit:10;}
	.st24{fill:#EFA194;stroke:#FFFFFF;stroke-width:4;stroke-miterlimit:10;}
	.st25{fill:#E98171;stroke:#FFFFFF;stroke-width:4;stroke-miterlimit:10;}
	.st26{fill:#E4624D;stroke:#FFFFFF;stroke-width:4;stroke-miterlimit:10;}
	.st27{fill:#2D4471;}
	.st28{opacity:0.8;fill:#2D4471;}
	.st29{opacity:0.6;fill:#2D4471;}
	.st30{opacity:0.4;fill:#2D4471;}
	.st31{opacity:0.2;fill:#2D4471;}
	.st32{fill:#FFFFFF;stroke:#E4E4E4;stroke-width:2;stroke-miterlimit:10;}
</style>
<g id="Layer_1">
	<g>
		<g>
			<path class="st0" d="M122.5,88.8c-1.8-2.5-3.6-4.7-5.1-7c-4.5-7-6.7-14.7-6.7-23.1c0-3.8,0-7.5-0.2-11.3c-0.2-4.3-1-8.5-2.6-12.5
				c-2.1-5.4-5.5-9.7-10.7-12.5c-4.1-2.3-8.3-4.1-12.9-4.9c-4.1-0.7-6.9-3.7-7.3-7.5c-0.5-3.8,1.5-7.5,5-9c1.4-0.6,3-0.9,4.5-0.9
				c18.9,0.8,32.3,9.7,39.5,26.7c3.2,7.4,4.3,15.3,4.5,23.3c0.1,2.7,0,5.5,0,8.2c-0.1,7.2,2.7,13.2,7.9,18.1c2,1.9,4.1,3.9,6,5.9
				c3.5,3.6,3.4,9.5-0.1,13.1c-1.9,2-4,3.9-6,5.9c-5.2,4.9-8,10.9-7.8,18.1c0.1,6.2,0.1,12.4-1,18.6c-0.9,5.2-2.2,10.2-4.5,15
				c-6.1,12.7-16,20.8-29.9,23.5c-3.2,0.6-6.4,1.2-9.6,1c-4.7-0.3-8.3-3.7-8.6-8.2c-0.2-4.6,2.8-8.4,7.5-9.2
				c5.9-1,11.1-3.5,15.8-6.9c4.9-3.6,7.5-8.8,8.9-14.6c1.3-5.4,1.6-10.9,1.5-16.5c-0.1-4.3,0.1-8.6,1-12.8c1.6-7,4.8-13.1,9.3-18.6
				C121.6,89.9,122.1,89.4,122.5,88.8z"/>
			<path class="st0" d="M24.5,88.9c3.1,3.5,5.8,7.3,7.8,11.5c2.7,5.7,3.9,11.7,4,18c0.1,4.9,0.1,9.9,0.6,14.8c0.3,2.9,1,5.8,2,8.6
				c2.4,7.3,7.7,12.1,14.5,15.2c3,1.3,6,2.4,9.2,3c4.7,0.8,7.7,4.6,7.4,9.3c-0.3,4.5-3.9,8.2-8.6,8.1c-17.2-0.3-30.5-7.4-38.7-23
				c-3.3-6.2-5-12.9-5.6-19.9c-0.4-4.8-0.6-9.6-0.5-14.4c0.1-8.2-3-14.7-9.1-20c-1.9-1.6-3.6-3.5-5.3-5.3c-3-3.4-2.8-9.1,0.3-12.4
				c1.9-2,3.8-3.9,5.8-5.7c5.4-5,8.3-11,8.2-18.4c-0.1-6.2,0-12.4,1-18.6c1.6-9.8,5.2-18.7,11.9-26.2c4.1-4.6,9-8,14.8-10.1
				c5.5-2,11.1-3.4,17-3.2c5.2,0.1,8.9,4.1,8.8,9.1c-0.1,3.9-2.7,7.2-6.6,8.1c-1.6,0.4-3.2,0.6-4.7,1.1c-4.1,1.2-7.9,3.2-11.4,5.6
				c-4.7,3.3-7.4,8.1-9,13.5c-1.7,5.9-2.1,11.9-1.9,18c0.1,4.1,0,8.3-0.9,12.3c-1.6,7.2-4.8,13.6-9.6,19.2c-0.4,0.4-0.8,0.9-1.1,1.4
				C24.6,88.5,24.6,88.5,24.5,88.9z"/>
		</g>
		<path class="st0" d="M93.7,201.1H52.2c-3.3,0-6,2.7-6,6v0.8c0,3.3,2.7,6,6,6h41.6c3.3,0,6-2.7,6-6v-0.8
			C99.7,203.8,97,201.1,93.7,201.1z"/>
		<path class="st0" d="M94.4,183.2H52.6c-3.6,0-6.5,2.9-6.5,6.5v0.8c0,2.9,2.4,5.3,5.3,5.3l43,0c2.9,0,5.3-2.4,5.3-5.3v-2
			C99.7,185.6,97.4,183.2,94.4,183.2z"/>
		<path class="st0" d="M56.5,219.3h32.9l0,0.1C79.2,233.6,66.6,233.6,56.5,219.3L56.5,219.3z"/>
	</g>
</g>
<g id="Layer_2">
</g>
</svg>
