<?xml version="1.0" encoding="utf-8"?>
<!-- Generator: Adobe Illustrator 26.4.0, SVG Export Plug-In . SVG Version: 6.00 Build 0)  -->
<svg version="1.1" xmlns="http://www.w3.org/2000/svg" xmlns:xlink="http://www.w3.org/1999/xlink" x="0px" y="0px"
	 viewBox="0 0 500 230" style="enable-background:new 0 0 500 230;" xml:space="preserve">
<style type="text/css">
	.st0{fill:#FFFFFF;}
	.st1{fill:#231BCC;}
	.st2{fill:#3819CE;}
	.st3{fill:#E4624D;}
	.st4{fill:#16A1C1;}
	.st5{fill:url(#SVGID_1_);}
	.st6{fill:url(#SVGID_00000056420186415439672290000010705212942062537140_);}
	.st7{fill:url(#SVGID_00000168088076485444176530000001640617992817203626_);}
	.st8{fill:url(#SVGID_00000079484242272903072690000004499269886861938304_);}
	.st9{fill:url(#SVGID_00000081642017922714563990000013027549845523354264_);}
	.st10{fill:#E2A050;}
	.st11{fill:#17C1DD;}
	.st12{fill:#510E8C;}
	.st13{opacity:0.8;fill:#E4624D;}
	.st14{opacity:0.6;fill:#E4624D;}
	.st15{opacity:0.4;fill:#E4624D;}
	.st16{opacity:0.2;fill:#E4624D;}
	.st17{fill:#E9E9FF;stroke:#FFFFFF;stroke-width:4;stroke-miterlimit:10;}
	.st18{fill:#C8C6F2;stroke:#FFFFFF;stroke-width:4;stroke-miterlimit:10;}
	.st19{fill:#918DE5;stroke:#FFFFFF;stroke-width:4;stroke-miterlimit:10;}
	.st20{fill:#5A54D9;stroke:#FFFFFF;stroke-width:4;stroke-miterlimit:10;}
	.st21{fill:#231BCC;stroke:#FFFFFF;stroke-width:4;stroke-miterlimit:10;}
	.st22{fill:#FAE0DB;stroke:#FFFFFF;stroke-width:4;stroke-miterlimit:10;}
	.st23{fill:#F4C0B8;stroke:#FFFFFF;stroke-width:4;stroke-miterlimit:10;}
	.st24{fill:#EFA194;stroke:#FFFFFF;stroke-width:4;stroke-miterlimit:10;}
	.st25{fill:#E98171;stroke:#FFFFFF;stroke-width:4;stroke-miterlimit:10;}
	.st26{fill:#E4624D;stroke:#FFFFFF;stroke-width:4;stroke-miterlimit:10;}
	.st27{fill:#2D4471;}
	.st28{opacity:0.8;fill:#2D4471;}
	.st29{opacity:0.6;fill:#2D4471;}
	.st30{opacity:0.4;fill:#2D4471;}
	.st31{opacity:0.2;fill:#2D4471;}
	.st32{fill:#FFFFFF;stroke:#E4E4E4;stroke-width:2;stroke-miterlimit:10;}
</style>
<g id="Layer_1">
	<g>
		<g>
			<g>
				<path class="st1" d="M256.9,55.1L243.3,99h-9.5l-8.8-32.4L216.1,99h-9.5l-13.7-43.9h9.2l9.1,35.3l9.3-35.3h9.5l8.9,35.1
					l9.1-35.1H256.9z"/>
				<path class="st1" d="M303.4,80.4H270c0.3,3.5,1.6,6.3,3.9,8.4c2.3,2.1,5.2,3.2,8.6,3.2c4.9,0,8.3-2,10.3-6.1h9.8
					c-1.3,4-3.7,7.3-7.2,9.9c-3.5,2.6-7.8,3.9-12.9,3.9c-4.2,0-7.9-0.9-11.2-2.8c-3.3-1.9-5.9-4.5-7.8-8c-1.9-3.4-2.8-7.4-2.8-11.9
					c0-4.5,0.9-8.5,2.7-11.9c1.8-3.4,4.4-6.1,7.7-7.9c3.3-1.9,7.1-2.8,11.4-2.8c4.1,0,7.8,0.9,11,2.7c3.2,1.8,5.7,4.3,7.5,7.6
					c1.8,3.3,2.7,7,2.7,11.3C303.7,77.6,303.6,79.1,303.4,80.4z M294.3,73.1c-0.1-3.3-1.2-6-3.6-8c-2.3-2-5.2-3-8.7-3
					c-3.1,0-5.8,1-8,3c-2.2,2-3.5,4.7-4,8.1H294.3z"/>
				<path class="st1" d="M328,56.4c2.7-1.4,5.7-2,8.9-2c3.9,0,7.4,0.9,10.5,2.8c3.1,1.9,5.6,4.5,7.4,7.9c1.8,3.4,2.7,7.3,2.7,11.7
					c0,4.4-0.9,8.4-2.7,11.8c-1.8,3.5-4.3,6.2-7.4,8.1c-3.2,1.9-6.6,2.9-10.4,2.9c-3.4,0-6.4-0.7-9-2c-2.6-1.3-4.7-3-6.2-5.1V99
					h-9.1V40h9.1v21.6C323.2,59.5,325.3,57.8,328,56.4z M346.4,69c-1.2-2.2-2.9-3.9-4.9-5c-2-1.1-4.2-1.7-6.6-1.7
					c-2.3,0-4.4,0.6-6.5,1.8c-2,1.2-3.7,2.9-4.9,5.1c-1.2,2.2-1.9,4.9-1.9,7.9c0,3,0.6,5.7,1.9,7.9c1.2,2.3,2.9,4,4.9,5.1
					c2,1.2,4.2,1.8,6.5,1.8c2.3,0,4.5-0.6,6.6-1.8c2-1.2,3.7-2.9,4.9-5.2c1.2-2.3,1.9-4.9,1.9-8C348.3,73.8,347.7,71.2,346.4,69z"/>
				<path class="st1" d="M373.1,97.8c-2.7-1.2-4.9-2.9-6.5-5.1c-1.6-2.2-2.4-4.6-2.5-7.2h9.4c0.2,1.9,1,3.4,2.7,4.7
					c1.6,1.2,3.6,1.9,6.1,1.9c2.5,0,4.5-0.5,5.9-1.5c1.4-1,2.1-2.2,2.1-3.8c0-1.6-0.8-2.9-2.3-3.7c-1.6-0.8-4-1.7-7.4-2.6
					c-3.3-0.9-6-1.8-8-2.6c-2.1-0.8-3.9-2.2-5.4-3.9c-1.5-1.8-2.3-4.1-2.3-6.9c0-2.3,0.7-4.5,2.1-6.4c1.4-1.9,3.3-3.5,5.9-4.6
					c2.6-1.1,5.5-1.7,8.9-1.7c5,0,9,1.3,12,3.8c3,2.5,4.7,6,4.9,10.3h-9.1c-0.2-2-1-3.5-2.4-4.7c-1.4-1.2-3.4-1.8-5.8-1.8
					c-2.4,0-4.2,0.5-5.5,1.4c-1.3,0.9-1.9,2.1-1.9,3.6c0,1.2,0.4,2.2,1.3,2.9c0.8,0.8,1.9,1.4,3.1,1.9c1.2,0.5,3,1,5.4,1.7
					c3.2,0.9,5.8,1.7,7.8,2.6c2,0.9,3.8,2.2,5.3,3.9c1.5,1.7,2.3,4,2.3,6.8c0,2.5-0.7,4.7-2.1,6.7c-1.4,2-3.3,3.5-5.8,4.6
					c-2.5,1.1-5.5,1.7-8.9,1.7C378.9,99.7,375.9,99.1,373.1,97.8z"/>
				<path class="st1" d="M409.4,47.6c-1.1-1.1-1.7-2.5-1.7-4.1c0-1.6,0.6-3,1.7-4.1c1.1-1.1,2.5-1.7,4.1-1.7c1.6,0,2.9,0.6,4.1,1.7
					c1.1,1.1,1.7,2.5,1.7,4.1c0,1.6-0.6,3-1.7,4.1c-1.1,1.1-2.5,1.7-4.1,1.7C411.9,49.3,410.5,48.7,409.4,47.6z M418,55.1V99h-9.1
					V55.1H418z"/>
				<path class="st1" d="M440.5,62.5v24.3c0,1.6,0.4,2.8,1.2,3.5c0.8,0.7,2.1,1.1,3.9,1.1h5.6V99H444c-4.1,0-7.2-1-9.4-2.9
					c-2.2-1.9-3.3-5-3.3-9.3V62.5h-5.2v-7.4h5.2V44.2h9.1v10.9h10.6v7.4H440.5z"/>
				<path class="st1" d="M499.2,80.4h-33.4c0.3,3.5,1.6,6.3,3.9,8.4c2.3,2.1,5.2,3.2,8.6,3.2c4.9,0,8.3-2,10.3-6.1h9.8
					c-1.3,4-3.7,7.3-7.2,9.9c-3.5,2.6-7.8,3.9-12.9,3.9c-4.2,0-7.9-0.9-11.2-2.8c-3.3-1.9-5.9-4.5-7.8-8c-1.9-3.4-2.8-7.4-2.8-11.9
					c0-4.5,0.9-8.5,2.7-11.9c1.8-3.4,4.4-6.1,7.7-7.9c3.3-1.9,7.1-2.8,11.4-2.8c4.1,0,7.8,0.9,11,2.7c3.2,1.8,5.7,4.3,7.5,7.6
					c1.8,3.3,2.7,7,2.7,11.3C499.6,77.6,499.5,79.1,499.2,80.4z M490.1,73.1c-0.1-3.3-1.2-6-3.6-8c-2.3-2-5.2-3-8.7-3
					c-3.1,0-5.8,1-8,3c-2.2,2-3.5,4.7-4,8.1H490.1z"/>
			</g>
			<g>
				<path class="st1" d="M222.2,128.1c2.6,1.4,4.7,3,6.2,5.1v-6.4h9.1v44.6c0,4-0.8,7.6-2.5,10.8c-1.7,3.2-4.1,5.6-7.3,7.4
					c-3.2,1.8-7,2.7-11.5,2.7c-5.9,0-10.9-1.4-14.8-4.2c-3.9-2.8-6.1-6.6-6.7-11.4h9c0.7,2.3,2.2,4.1,4.4,5.5
					c2.3,1.4,4.9,2.1,8.1,2.1c3.7,0,6.6-1.1,8.9-3.3c2.3-2.2,3.4-5.5,3.4-9.7v-7.3c-1.5,2.1-3.6,3.8-6.2,5.2s-5.6,2.1-8.9,2.1
					c-3.8,0-7.3-1-10.4-2.9c-3.2-1.9-5.6-4.6-7.5-8.1c-1.8-3.5-2.7-7.4-2.7-11.8c0-4.4,0.9-8.3,2.7-11.7c1.8-3.4,4.3-6,7.5-7.9
					c3.2-1.9,6.6-2.8,10.4-2.8C216.5,126.1,219.5,126.7,222.2,128.1z M226.5,140.8c-1.2-2.2-2.9-3.9-4.9-5.1c-2-1.2-4.2-1.8-6.5-1.8
					c-2.3,0-4.5,0.6-6.5,1.7c-2,1.1-3.6,2.8-4.9,5c-1.2,2.2-1.9,4.8-1.9,7.8s0.6,5.7,1.9,8c1.2,2.3,2.9,4,4.9,5.2
					c2,1.2,4.2,1.8,6.5,1.8c2.3,0,4.5-0.6,6.5-1.8c2-1.2,3.6-2.9,4.9-5.1c1.2-2.3,1.9-4.9,1.9-7.9
					C228.3,145.7,227.7,143,226.5,140.8z"/>
				<path class="st1" d="M289.2,152.1h-33.4c0.3,3.5,1.6,6.3,3.9,8.4c2.3,2.1,5.2,3.2,8.6,3.2c4.9,0,8.3-2,10.3-6.1h9.8
					c-1.3,4-3.7,7.3-7.2,9.9c-3.5,2.6-7.8,3.9-12.9,3.9c-4.2,0-7.9-0.9-11.2-2.8c-3.3-1.9-5.9-4.5-7.8-8c-1.9-3.4-2.8-7.4-2.8-11.9
					c0-4.5,0.9-8.5,2.7-11.9c1.8-3.4,4.4-6.1,7.7-7.9c3.3-1.9,7.1-2.8,11.4-2.8c4.1,0,7.8,0.9,11,2.7c3.2,1.8,5.7,4.3,7.5,7.6
					c1.8,3.3,2.7,7,2.7,11.3C289.5,149.3,289.4,150.8,289.2,152.1z M280,144.8c-0.1-3.3-1.2-6-3.6-8c-2.3-2-5.2-3-8.7-3
					c-3.1,0-5.8,1-8,3c-2.2,2-3.5,4.7-4,8.1H280z"/>
				<path class="st1" d="M298.1,136.8c1.8-3.4,4.3-6,7.5-7.9c3.2-1.9,6.7-2.8,10.5-2.8c2.9,0,5.7,0.6,8.5,1.9c2.8,1.2,5,2.9,6.6,5
					v-21.2h9.1v58.9h-9.1v-6.6c-1.5,2.1-3.5,3.9-6.2,5.3c-2.6,1.4-5.6,2.1-9,2.1c-3.8,0-7.3-1-10.4-2.9c-3.2-1.9-5.6-4.6-7.5-8.1
					c-1.8-3.5-2.7-7.4-2.7-11.8C295.4,144.1,296.3,140.2,298.1,136.8z M329.3,140.8c-1.2-2.2-2.9-3.9-4.9-5.1
					c-2-1.2-4.2-1.8-6.5-1.8c-2.3,0-4.5,0.6-6.5,1.7c-2,1.1-3.6,2.8-4.9,5c-1.2,2.2-1.9,4.8-1.9,7.8s0.6,5.7,1.9,8
					c1.2,2.3,2.9,4,4.9,5.2c2,1.2,4.2,1.8,6.5,1.8c2.3,0,4.5-0.6,6.5-1.8c2-1.2,3.6-2.9,4.9-5.1c1.2-2.3,1.9-4.9,1.9-7.9
					C331.2,145.7,330.6,143,329.3,140.8z"/>
				<path class="st1" d="M352,136.8c1.8-3.4,4.3-6,7.5-7.9c3.2-1.9,6.6-2.8,10.4-2.8c3.4,0,6.4,0.7,9,2c2.6,1.4,4.6,3,6.2,5.1v-6.4
					h9.1v43.9h-9.1v-6.5c-1.5,2.1-3.6,3.8-6.3,5.2c-2.6,1.4-5.7,2.1-9.1,2.1c-3.8,0-7.2-1-10.3-2.9c-3.1-1.9-5.6-4.6-7.4-8.1
					c-1.8-3.5-2.7-7.4-2.7-11.8C349.2,144.1,350.1,140.2,352,136.8z M383.2,140.8c-1.2-2.2-2.9-3.9-4.9-5.1c-2-1.2-4.2-1.8-6.5-1.8
					c-2.3,0-4.5,0.6-6.5,1.7c-2,1.1-3.6,2.8-4.9,5c-1.2,2.2-1.9,4.8-1.9,7.8s0.6,5.7,1.9,8c1.2,2.3,2.9,4,4.9,5.2
					c2,1.2,4.2,1.8,6.5,1.8c2.3,0,4.5-0.6,6.5-1.8c2-1.2,3.6-2.9,4.9-5.1c1.2-2.3,1.9-4.9,1.9-7.9
					C385.1,145.7,384.4,143,383.2,140.8z"/>
				<path class="st1" d="M405.8,136.8c1.8-3.4,4.3-6,7.5-7.9c3.2-1.9,6.6-2.8,10.4-2.8c3.4,0,6.4,0.7,9,2c2.6,1.4,4.6,3,6.2,5.1
					v-6.4h9.1v43.9h-9.1v-6.5c-1.5,2.1-3.6,3.8-6.3,5.2c-2.6,1.4-5.7,2.1-9.1,2.1c-3.8,0-7.2-1-10.3-2.9c-3.1-1.9-5.6-4.6-7.4-8.1
					c-1.8-3.5-2.7-7.4-2.7-11.8C403.1,144.1,404,140.2,405.8,136.8z M437,140.8c-1.2-2.2-2.9-3.9-4.9-5.1c-2-1.2-4.2-1.8-6.5-1.8
					c-2.3,0-4.5,0.6-6.5,1.7c-2,1.1-3.6,2.8-4.9,5c-1.2,2.2-1.9,4.8-1.9,7.8s0.6,5.7,1.9,8c1.2,2.3,2.9,4,4.9,5.2
					c2,1.2,4.2,1.8,6.5,1.8c2.3,0,4.5-0.6,6.5-1.8c2-1.2,3.6-2.9,4.9-5.1c1.2-2.3,1.9-4.9,1.9-7.9C438.9,145.7,438.3,143,437,140.8z
					"/>
				<path class="st1" d="M491.3,128.2c2.7,1.4,4.9,3.6,6.4,6.4c1.5,2.8,2.3,6.2,2.3,10.2v25.9h-9v-24.5c0-3.9-1-6.9-2.9-9
					c-2-2.1-4.6-3.1-8-3.1c-3.4,0-6.1,1-8.1,3.1c-2,2.1-3,5.1-3,9v24.5H460v-43.9h9.1v5c1.5-1.8,3.4-3.2,5.7-4.2
					c2.3-1,4.8-1.5,7.3-1.5C485.5,126.1,488.6,126.8,491.3,128.2z"/>
			</g>
		</g>
		<g>
			<g>
				<path class="st1" d="M122.6,88.8c-1.8-2.5-3.6-4.7-5.1-7c-4.5-7-6.7-14.7-6.7-23.1c0-3.8,0-7.5-0.2-11.3
					c-0.2-4.3-1-8.5-2.6-12.5c-2.1-5.4-5.5-9.7-10.7-12.5c-4.1-2.3-8.3-4.1-12.9-4.9c-4.1-0.7-6.9-3.7-7.3-7.5c-0.5-3.8,1.5-7.5,5-9
					c1.4-0.6,3-0.9,4.5-0.9c18.9,0.8,32.3,9.7,39.5,26.7c3.2,7.4,4.3,15.3,4.5,23.3c0.1,2.7,0,5.5,0,8.2c-0.1,7.2,2.7,13.2,7.9,18.1
					c2,1.9,4.1,3.9,6,5.9c3.5,3.6,3.4,9.5-0.1,13.1c-1.9,2-4,3.9-6,5.9c-5.2,4.9-8,10.9-7.8,18.1c0.1,6.2,0.1,12.4-1,18.6
					c-0.9,5.2-2.2,10.2-4.5,15c-6.1,12.7-16,20.8-29.9,23.5c-3.2,0.6-6.4,1.2-9.6,1c-4.7-0.3-8.3-3.7-8.6-8.2
					c-0.2-4.6,2.8-8.4,7.5-9.2c5.9-1,11.1-3.5,15.8-6.9c4.9-3.6,7.5-8.8,8.9-14.6c1.3-5.4,1.6-10.9,1.5-16.5
					c-0.1-4.3,0.1-8.6,1-12.8c1.6-7,4.8-13.1,9.4-18.6C121.7,89.9,122.2,89.4,122.6,88.8z"/>
				<path class="st1" d="M24.5,88.9c3.1,3.5,5.8,7.3,7.8,11.5c2.7,5.7,3.9,11.7,4,18c0.1,4.9,0.1,9.9,0.6,14.8c0.3,2.9,1,5.8,2,8.6
					c2.4,7.3,7.7,12.1,14.6,15.2c3,1.3,6,2.4,9.2,3c4.7,0.8,7.7,4.6,7.4,9.3c-0.3,4.5-3.9,8.2-8.6,8.1c-17.2-0.3-30.5-7.4-38.7-23
					c-3.3-6.2-5-12.9-5.6-19.9c-0.4-4.8-0.6-9.6-0.5-14.4c0.1-8.2-3-14.7-9.1-20c-1.9-1.6-3.6-3.5-5.3-5.3c-3-3.4-2.8-9.1,0.3-12.4
					c1.9-2,3.8-3.9,5.8-5.7c5.4-5,8.3-11,8.2-18.4c-0.1-6.2,0-12.4,1-18.6c1.6-9.8,5.2-18.7,11.9-26.2c4.1-4.6,9-8,14.8-10.1
					c5.5-2,11.1-3.4,17-3.2c5.2,0.1,8.9,4.1,8.8,9.1c-0.1,3.9-2.7,7.2-6.6,8.1c-1.6,0.4-3.2,0.6-4.7,1.1c-4.1,1.2-7.9,3.2-11.5,5.6
					c-4.8,3.3-7.5,8.1-9,13.5c-1.7,5.9-2.1,11.9-1.9,18c0.1,4.1,0,8.3-0.9,12.3c-1.6,7.2-4.8,13.6-9.6,19.2
					c-0.4,0.4-0.8,0.9-1.1,1.4C24.6,88.5,24.6,88.5,24.5,88.9z"/>
			</g>
			<path class="st1" d="M93.8,201.1H52.2c-3.3,0-6,2.7-6,6v0.8c0,3.3,2.7,6,6,6h41.6c3.3,0,6-2.7,6-6v-0.8
				C99.8,203.8,97.1,201.1,93.8,201.1z"/>
			<path class="st1" d="M94.5,183.2H52.7c-3.6,0-6.5,2.9-6.5,6.5v0.8c0,2.9,2.4,5.3,5.3,5.3l43,0c2.9,0,5.3-2.4,5.3-5.3v-2
				C99.8,185.6,97.5,183.2,94.5,183.2z"/>
			<path class="st1" d="M56.5,219.3h33l0,0.1C79.3,233.6,66.7,233.6,56.5,219.3L56.5,219.3z"/>
		</g>
	</g>
</g>
<g id="Layer_2">
</g>
</svg>
